<?xml version="1.0" encoding="UTF-8"?>
<svg xmlns="http://www.w3.org/2000/svg" xmlns:xlink="http://www.w3.org/1999/xlink" width="32px" height="32px" viewBox="0 0 32 32" version="1.1">
<g id="surface1">
<path style=" stroke:none;fill-rule:nonzero;fill:rgb(0%,0%,0%);fill-opacity:1;" d="M 12.800781 0.332031 C 8.042969 1.332031 4.03125 4.363281 1.824219 8.640625 C 0.757812 10.6875 0.0976562 13.097656 0.117188 14.792969 C 0.128906 15.625 0.128906 15.625 0.222656 15.09375 C 0.277344 14.792969 0.375 14.21875 0.4375 13.8125 C 0.8125 11.328125 1.855469 8.671875 3.113281 6.988281 C 4.296875 5.40625 5.34375 4.339844 6.667969 3.359375 C 7.574219 2.6875 9.078125 1.8125 9.3125 1.8125 C 9.417969 1.8125 9.492188 1.769531 9.492188 1.71875 C 9.492188 1.664062 9.652344 1.578125 9.84375 1.546875 C 10.027344 1.503906 10.238281 1.429688 10.292969 1.386719 C 10.6875 1.089844 13.84375 0.332031 14.742188 0.308594 C 14.988281 0.308594 15.296875 0.265625 15.414062 0.214844 C 15.839844 0.03125 13.8125 0.128906 12.800781 0.332031 Z M 12.800781 0.332031 "/>
<path style=" stroke:none;fill-rule:nonzero;fill:rgb(0%,0%,0%);fill-opacity:1;" d="M 16.4375 0.160156 C 16.46875 0.179688 17.035156 0.277344 17.695312 0.363281 C 20.960938 0.800781 23.691406 1.953125 26.027344 3.894531 C 26.742188 4.480469 28.320312 6.164062 28.671875 6.699219 C 28.886719 7.03125 29.140625 7.390625 29.246094 7.5 C 29.472656 7.753906 30.441406 9.726562 30.785156 10.632812 C 31.148438 11.605469 31.433594 12.820312 31.617188 14.28125 C 31.710938 14.945312 31.808594 15.519531 31.839844 15.550781 C 31.980469 15.703125 31.871094 13.835938 31.667969 12.875 C 31.359375 11.328125 30.910156 10.058594 30.175781 8.640625 C 27.945312 4.332031 23.914062 1.300781 19.125 0.332031 C 18.1875 0.136719 16.296875 0.0195312 16.4375 0.160156 Z M 16.4375 0.160156 "/>
<path style=" stroke:none;fill-rule:nonzero;fill:rgb(0%,0%,0%);fill-opacity:1;" d="M 19.007812 7.785156 C 18.484375 8 18.292969 8.296875 18.292969 8.90625 C 18.292969 9.398438 18.335938 9.523438 18.601562 9.800781 C 18.773438 9.984375 19.007812 10.15625 19.105469 10.1875 C 19.402344 10.28125 20.160156 10.039062 20.4375 9.761719 C 20.640625 9.558594 20.789062 9.503906 21.238281 9.515625 C 21.707031 9.523438 21.835938 9.578125 22.164062 9.910156 C 22.390625 10.121094 22.871094 10.550781 23.242188 10.859375 C 23.902344 11.402344 23.957031 11.425781 24.523438 11.414062 C 25.523438 11.382812 25.558594 11.390625 25.855469 11.820312 C 26.089844 12.171875 26.132812 12.339844 26.132812 13.003906 L 26.132812 13.78125 L 25.375 14.59375 C 24.542969 15.5 24.449219 15.667969 24.511719 16.105469 C 24.554688 16.414062 24.703125 16.585938 25.589844 17.367188 L 26.058594 17.78125 L 26.101562 18.871094 L 26.144531 19.945312 L 25.792969 20.363281 C 25.472656 20.757812 25.398438 20.789062 24.726562 20.851562 L 24 20.929688 L 22.835938 22.144531 C 21.683594 23.339844 21.652344 23.359375 21.183594 23.359375 C 20.777344 23.359375 20.671875 23.316406 20.480469 23.039062 C 20.085938 22.484375 19.328125 22.433594 18.71875 22.910156 C 18.476562 23.105469 18.410156 23.253906 18.367188 23.710938 C 18.324219 24.203125 18.355469 24.308594 18.632812 24.617188 C 19.199219 25.257812 20.054688 25.238281 20.597656 24.554688 C 20.769531 24.332031 20.90625 24.277344 21.441406 24.265625 L 22.078125 24.234375 L 22.964844 23.296875 C 24.480469 21.664062 24.492188 21.652344 25.023438 21.652344 C 25.355469 21.652344 25.566406 21.71875 25.769531 21.886719 C 26.078125 22.164062 26.71875 22.421875 26.828125 22.316406 C 26.871094 22.273438 26.933594 22.238281 26.964844 22.230469 C 27.402344 22.175781 27.734375 21.664062 27.734375 21.054688 C 27.734375 20.746094 27.660156 20.585938 27.359375 20.296875 L 26.976562 19.925781 L 26.953125 17.449219 L 26.550781 17.066406 C 26.316406 16.851562 26.132812 16.652344 26.132812 16.609375 C 26.132812 16.414062 26.785156 16.90625 27.5 17.621094 C 28.257812 18.398438 28.265625 18.410156 28.148438 18.753906 C 27.914062 19.433594 28.332031 20.054688 29.003906 20.054688 C 29.546875 20.042969 29.867188 19.765625 29.941406 19.222656 C 29.996094 18.804688 29.972656 18.742188 29.601562 18.421875 C 28.777344 17.71875 27.734375 16.703125 27.734375 16.640625 C 27.734375 16.597656 27.925781 16.554688 28.148438 16.554688 C 28.449219 16.542969 28.652344 16.617188 28.851562 16.8125 C 29.003906 16.949219 29.3125 17.097656 29.523438 17.128906 C 29.867188 17.183594 29.972656 17.152344 30.207031 16.90625 C 30.550781 16.566406 30.667969 16.136719 30.507812 15.742188 C 30.21875 14.976562 29.429688 14.816406 28.851562 15.390625 C 28.554688 15.691406 28.414062 15.753906 27.9375 15.777344 L 27.359375 15.808594 L 27.574219 15.5625 C 28.296875 14.730469 29.003906 14.207031 29.226562 14.347656 C 29.28125 14.378906 29.484375 14.238281 29.683594 14.039062 C 29.984375 13.75 30.046875 13.601562 30.015625 13.34375 C 29.898438 12.339844 28.929688 11.871094 28.289062 12.511719 C 28.054688 12.746094 28 12.90625 27.988281 13.34375 C 27.988281 13.855469 27.957031 13.898438 27.253906 14.613281 C 26.558594 15.316406 26.230469 15.5 26.078125 15.253906 C 26.046875 15.199219 26.230469 14.945312 26.476562 14.6875 L 26.933594 14.230469 L 26.933594 12.191406 L 27.328125 11.828125 C 27.660156 11.507812 27.710938 11.402344 27.679688 11.070312 C 27.617188 10.324219 27.210938 9.921875 26.539062 9.921875 C 26.25 9.921875 26.039062 10.003906 25.78125 10.238281 C 25.460938 10.515625 25.324219 10.558594 24.8125 10.558594 C 24.222656 10.558594 24.214844 10.550781 23.390625 9.800781 C 22.1875 8.703125 22.121094 8.671875 21.398438 8.683594 C 20.800781 8.691406 20.769531 8.683594 20.492188 8.296875 C 20.105469 7.753906 19.5625 7.5625 19.007812 7.785156 Z M 20.191406 8.171875 C 20.351562 8.320312 20.5 8.542969 20.535156 8.652344 C 20.585938 8.820312 20.703125 8.851562 21.355469 8.851562 L 22.101562 8.851562 L 23.148438 9.792969 L 24.191406 10.730469 L 24.894531 10.6875 C 25.503906 10.644531 25.652344 10.59375 25.921875 10.335938 C 26.582031 9.675781 27.574219 10.15625 27.5 11.105469 C 27.476562 11.5 27.414062 11.605469 27.125 11.785156 L 26.785156 12 L 26.773438 13.054688 L 26.773438 14.101562 L 26.292969 14.632812 C 25.84375 15.125 25.824219 15.1875 25.972656 15.359375 C 26.058594 15.457031 26.132812 15.59375 26.132812 15.660156 C 26.132812 15.902344 26.316406 15.777344 27.273438 14.792969 C 28.042969 14.039062 28.234375 13.78125 28.160156 13.652344 C 27.96875 13.367188 28.054688 13.003906 28.363281 12.683594 C 28.777344 12.277344 29.195312 12.277344 29.578125 12.671875 C 30.144531 13.269531 29.8125 14.1875 29.023438 14.1875 C 28.8125 14.1875 28.523438 14.398438 27.894531 15.039062 L 27.039062 15.894531 L 27.820312 15.894531 C 28.574219 15.894531 28.609375 15.882812 28.949219 15.519531 C 29.375 15.070312 29.71875 15.039062 30.113281 15.402344 C 30.644531 15.902344 30.570312 16.492188 29.910156 16.917969 C 29.664062 17.089844 29.609375 17.089844 29.269531 16.929688 C 29.066406 16.820312 28.875 16.671875 28.84375 16.585938 C 28.789062 16.46875 28.597656 16.425781 28 16.425781 L 27.222656 16.425781 L 28.246094 17.386719 C 28.820312 17.910156 29.40625 18.464844 29.578125 18.601562 C 29.941406 18.933594 29.953125 19.308594 29.589844 19.667969 C 29.128906 20.128906 28.511719 20.011719 28.265625 19.425781 C 28.160156 19.15625 28.171875 19.050781 28.308594 18.753906 L 28.492188 18.410156 L 27.5 17.417969 C 26.847656 16.769531 26.433594 16.425781 26.273438 16.425781 C 25.855469 16.425781 25.867188 16.660156 26.316406 17.054688 L 26.753906 17.441406 L 26.816406 18.742188 L 26.878906 20.03125 L 27.253906 20.40625 C 27.828125 20.980469 27.753906 21.683594 27.082031 22.039062 C 26.667969 22.25 26.21875 22.15625 25.867188 21.78125 C 25.621094 21.523438 25.535156 21.492188 24.980469 21.523438 L 24.363281 21.566406 L 23.199219 22.835938 L 22.039062 24.105469 L 21.375 24.105469 C 20.789062 24.105469 20.691406 24.136719 20.542969 24.375 C 19.742188 25.601562 17.929688 24.566406 18.613281 23.265625 C 18.953125 22.59375 20.011719 22.570312 20.425781 23.222656 C 20.617188 23.53125 20.691406 23.5625 21.195312 23.574219 C 21.683594 23.574219 21.769531 23.542969 22.027344 23.222656 C 22.1875 23.039062 22.71875 22.464844 23.222656 21.953125 L 24.117188 21.023438 L 24.875 20.992188 C 25.515625 20.96875 25.632812 20.9375 25.707031 20.746094 C 25.75 20.628906 25.910156 20.414062 26.070312 20.277344 C 26.335938 20.019531 26.335938 20 26.28125 18.890625 L 26.21875 17.761719 L 25.71875 17.28125 C 25.429688 17.011719 25.078125 16.691406 24.917969 16.566406 C 24.714844 16.394531 24.640625 16.234375 24.640625 15.96875 C 24.640625 15.667969 24.769531 15.464844 25.441406 14.753906 L 26.238281 13.886719 L 26.238281 12.929688 C 26.238281 12.117188 26.207031 11.945312 26.027344 11.785156 C 25.910156 11.679688 25.792969 11.507812 25.75 11.390625 C 25.695312 11.199219 25.601562 11.179688 24.800781 11.222656 L 23.914062 11.253906 L 22.871094 10.316406 L 21.824219 9.386719 L 21.214844 9.386719 C 20.691406 9.386719 20.566406 9.429688 20.265625 9.707031 C 19.765625 10.175781 19.199219 10.15625 18.710938 9.664062 C 18.230469 9.183594 18.21875 8.691406 18.65625 8.222656 C 19.070312 7.777344 19.777344 7.753906 20.191406 8.171875 Z M 20.191406 8.171875 "/>
<path style=" stroke:none;fill-rule:nonzero;fill:rgb(0%,0%,0%);fill-opacity:1;" d="M 19.308594 8.800781 C 19.1875 8.9375 19.1875 9.003906 19.339844 9.152344 C 19.550781 9.355469 19.777344 9.207031 19.710938 8.894531 C 19.667969 8.640625 19.476562 8.597656 19.308594 8.800781 Z M 19.308594 8.800781 "/>
<path style=" stroke:none;fill-rule:nonzero;fill:rgb(0%,0%,0%);fill-opacity:1;" d="M 19.316406 23.667969 C 19.230469 23.820312 19.253906 23.902344 19.402344 24.042969 C 19.585938 24.214844 19.617188 24.214844 19.777344 24.054688 C 19.980469 23.839844 19.988281 23.765625 19.820312 23.59375 C 19.636719 23.414062 19.433594 23.433594 19.316406 23.667969 Z M 19.679688 23.785156 C 19.710938 23.839844 19.667969 23.894531 19.585938 23.894531 C 19.488281 23.894531 19.414062 23.839844 19.414062 23.785156 C 19.414062 23.722656 19.457031 23.679688 19.507812 23.679688 C 19.574219 23.679688 19.648438 23.722656 19.679688 23.785156 Z M 19.679688 23.785156 "/>
<path style=" stroke:none;fill-rule:nonzero;fill:rgb(0%,0%,0%);fill-opacity:1;" d="M 18.398438 10.996094 C 16.628906 11.316406 15.222656 12.554688 14.625 14.292969 C 14.324219 15.148438 14.207031 17.046875 14.390625 17.921875 C 14.753906 19.648438 15.679688 20.929688 17.078125 21.621094 C 17.941406 22.058594 19.316406 22.21875 20.535156 22.027344 C 21.324219 21.898438 22.847656 21.109375 23.542969 20.457031 C 23.777344 20.246094 23.777344 20.203125 23.722656 18.101562 C 23.691406 16.777344 23.625 15.902344 23.5625 15.820312 C 23.464844 15.710938 22.964844 15.679688 21.375 15.679688 C 18.902344 15.679688 18.988281 15.636719 18.988281 16.851562 C 18.988281 17.941406 19.0625 18.027344 20.136719 18.039062 C 20.585938 18.046875 21.023438 18.046875 21.089844 18.039062 C 21.257812 18.015625 21.152344 18.976562 20.96875 19.15625 C 20.90625 19.222656 20.554688 19.359375 20.179688 19.457031 C 19.125 19.742188 18.015625 19.445312 17.492188 18.753906 C 17.375 18.582031 17.300781 18.390625 17.34375 18.324219 C 17.386719 18.25 17.375 18.238281 17.300781 18.28125 C 17.109375 18.398438 16.9375 17.535156 16.9375 16.457031 C 16.949219 15.636719 16.992188 15.371094 17.207031 14.890625 C 17.886719 13.398438 19.765625 13.078125 20.886719 14.261719 L 21.332031 14.753906 L 21.953125 14.675781 C 23.007812 14.558594 23.382812 14.507812 23.5 14.433594 C 23.636719 14.347656 23.507812 13.515625 23.296875 13.089844 C 22.773438 12.074219 21.75 11.296875 20.683594 11.09375 C 19.902344 10.945312 18.921875 10.902344 18.398438 10.996094 Z M 20.5 11.316406 C 21.707031 11.574219 22.59375 12.265625 23.082031 13.332031 C 23.5 14.21875 23.5 14.207031 22.453125 14.347656 C 22.164062 14.378906 21.792969 14.433594 21.632812 14.464844 C 21.398438 14.507812 21.324219 14.464844 21.183594 14.199219 C 20.96875 13.800781 20.265625 13.375 19.648438 13.28125 C 18.507812 13.097656 17.289062 13.84375 16.863281 14.996094 C 16.585938 15.722656 16.566406 17.183594 16.8125 18.015625 C 17.035156 18.761719 17.78125 19.550781 18.453125 19.734375 C 19.179688 19.925781 20.351562 19.820312 20.917969 19.507812 L 21.386719 19.253906 L 21.417969 18.476562 L 21.449219 17.707031 L 19.199219 17.707031 L 19.199219 16 L 23.464844 16 L 23.464844 20.246094 L 22.730469 20.734375 C 21.695312 21.429688 21.152344 21.644531 20.117188 21.78125 C 17.609375 22.121094 15.617188 20.90625 14.828125 18.558594 C 14.539062 17.71875 14.476562 15.851562 14.710938 14.933594 C 15.382812 12.222656 17.761719 10.742188 20.5 11.316406 Z M 20.5 11.316406 "/>
<path style=" stroke:none;fill-rule:nonzero;fill:rgb(0%,0%,0%);fill-opacity:1;" d="M 5.78125 11.199219 C 5.675781 11.371094 5.695312 11.476562 5.886719 11.808594 C 6.003906 12.03125 6.410156 12.734375 6.773438 13.386719 C 7.59375 14.847656 7.871094 15.339844 8.363281 16.191406 C 8.574219 16.566406 8.746094 16.894531 8.746094 16.917969 C 8.746094 16.9375 8.863281 17.140625 9.003906 17.367188 C 9.238281 17.75 9.246094 17.867188 9.269531 19.734375 C 9.28125 21.3125 9.3125 21.726562 9.441406 21.824219 C 9.664062 21.996094 11.585938 21.929688 11.753906 21.75 C 11.863281 21.644531 11.894531 21.121094 11.882812 19.734375 L 11.871094 17.867188 L 12.265625 17.121094 C 12.492188 16.703125 12.769531 16.203125 12.886719 16 C 13.011719 15.796875 13.171875 15.507812 13.257812 15.359375 C 13.332031 15.210938 13.867188 14.261719 14.441406 13.246094 C 15.742188 10.933594 15.753906 10.988281 14.027344 10.988281 C 12.554688 10.988281 12.726562 10.828125 11.507812 13.300781 C 10.792969 14.761719 10.625 15.03125 10.496094 14.921875 C 10.410156 14.859375 10.347656 14.742188 10.347656 14.675781 C 10.347656 14.476562 8.800781 11.371094 8.597656 11.167969 C 8.4375 11.019531 8.203125 10.988281 7.167969 10.988281 C 6.039062 10.988281 5.910156 11.007812 5.78125 11.199219 Z M 15.007812 11.703125 C 14.871094 11.925781 14.046875 13.367188 13.195312 14.902344 L 11.625 17.695312 L 11.625 21.652344 L 9.492188 21.652344 L 9.492188 17.664062 L 7.925781 14.890625 C 7.070312 13.355469 6.25 11.925781 6.113281 11.703125 L 5.867188 11.308594 L 7.167969 11.308594 L 8.480469 11.316406 L 9.535156 13.546875 L 10.59375 15.765625 L 11.691406 13.546875 L 12.789062 11.316406 L 13.996094 11.285156 C 14.65625 11.265625 15.210938 11.265625 15.230469 11.273438 C 15.253906 11.273438 15.15625 11.464844 15.007812 11.703125 Z M 15.007812 11.703125 "/>
<path style=" stroke:none;fill-rule:nonzero;fill:rgb(0%,0%,0%);fill-opacity:1;" d="M 4.535156 13.941406 C 4.054688 14.355469 2.335938 15.914062 2.058594 16.179688 C 1.652344 16.566406 1.632812 16.523438 3.148438 17.867188 C 3.542969 18.21875 4.117188 18.730469 4.414062 19.007812 C 4.714844 19.285156 5.003906 19.519531 5.046875 19.519531 C 5.183594 19.519531 5.289062 19.105469 5.269531 18.644531 C 5.246094 18.199219 5.152344 18.089844 3.914062 16.992188 C 3.691406 16.800781 3.519531 16.609375 3.519531 16.554688 C 3.519531 16.457031 4.554688 15.507812 4.992188 15.1875 C 5.171875 15.0625 5.355469 13.886719 5.207031 13.800781 C 5.164062 13.769531 5.121094 13.972656 5.121094 14.261719 C 5.128906 14.773438 5.121094 14.773438 4.148438 15.679688 L 3.179688 16.597656 L 4.148438 17.429688 L 5.121094 18.25 L 5.121094 19.445312 L 4.554688 18.921875 C 4.257812 18.632812 3.53125 17.996094 2.953125 17.492188 C 2.390625 17.003906 1.929688 16.566406 1.941406 16.535156 C 1.960938 16.5 2.550781 15.945312 3.253906 15.316406 C 4.90625 13.824219 5.089844 13.652344 4.960938 13.652344 C 4.894531 13.652344 4.714844 13.78125 4.535156 13.941406 Z M 4.535156 13.941406 "/>
<path style=" stroke:none;fill-rule:nonzero;fill:rgb(0%,0%,0%);fill-opacity:1;" d="M 31.808594 16.375 C 31.796875 16.4375 31.734375 16.894531 31.679688 17.386719 C 31.488281 18.933594 30.996094 21.121094 30.835938 21.121094 C 30.792969 21.121094 30.761719 21.214844 30.753906 21.324219 C 30.730469 21.621094 30.121094 22.976562 29.621094 23.839844 C 28.136719 26.410156 25.824219 28.617188 23.199219 29.953125 C 22.496094 30.304688 21.046875 30.910156 20.726562 30.964844 C 20.617188 30.988281 20.414062 31.0625 20.265625 31.113281 C 20.117188 31.179688 19.382812 31.328125 18.613281 31.464844 C 16.332031 31.851562 16.382812 31.839844 17.238281 31.871094 C 17.71875 31.894531 18.421875 31.820312 19.105469 31.679688 C 23.914062 30.699219 27.945312 27.679688 30.175781 23.359375 C 31.273438 21.238281 31.9375 18.804688 31.863281 17.140625 C 31.851562 16.660156 31.820312 16.320312 31.808594 16.375 Z M 31.808594 16.375 "/>
<path style=" stroke:none;fill-rule:nonzero;fill:rgb(0%,0%,0%);fill-opacity:1;" d="M 0.117188 17.207031 C 0.0976562 18.902344 0.769531 21.3125 1.824219 23.359375 C 4.054688 27.667969 8.085938 30.699219 12.875 31.667969 C 13.84375 31.871094 15.59375 31.980469 15.445312 31.839844 C 15.371094 31.765625 15.125 31.710938 14.292969 31.625 C 13.40625 31.542969 11.050781 30.964844 10.558594 30.71875 C 10.355469 30.625 10.046875 30.507812 9.886719 30.464844 C 9.460938 30.367188 7.785156 29.417969 6.773438 28.714844 C 6.304688 28.382812 5.460938 27.660156 4.90625 27.09375 C 2.453125 24.628906 0.894531 21.515625 0.425781 18.113281 C 0.191406 16.4375 0.128906 16.265625 0.117188 17.207031 Z M 0.117188 17.207031 "/>
</g>
</svg>
